REM DIRINDEX 1\2\6,1\2\7,1\2\8,1\3\9,1\3\10,1\3\11,1\4\12,1\4\13,1\4\14,1\5\15,1\5\16,1\5\17,1\5\18
REM DIRNAME folder01,folder02,folder03,folder04,folder05,folder06,folder07,folder08,folder09,folder10,folder11,folder12,folder13,folder14,folder15,folder16,folder17,folder18
TITLE ""
FILE "" MP3
  TRACK 01 AUDIO
    TITLE "16:cjc019_5479"
    INDEX 01 00:00:00
  TRACK 02 AUDIO
    TITLE "0:"
    INDEX 01 00:01:03
  TRACK 03 AUDIO
    TITLE "18:cjc019_5480"
    INDEX 01 00:01:58
  TRACK 04 AUDIO
    TITLE "0:"
    INDEX 01 00:04:31
  TRACK 05 AUDIO
    TITLE "17:cjc019_5481"
    INDEX 01 00:05:09
  TRACK 06 AUDIO
    TITLE "0:"
    INDEX 01 00:06:24
  TRACK 07 AUDIO
    TITLE "16:cjc019_5482"
    INDEX 01 00:08:03
  TRACK 08 AUDIO
    TITLE "0:"
    INDEX 01 00:09:18
  TRACK 09 AUDIO
    TITLE "18:cjc019_5483"
    INDEX 01 00:10:06
  TRACK 10 AUDIO
    TITLE "0:"
    INDEX 01 00:13:18
  TRACK 11 AUDIO
    TITLE "17:cjc019_5484"
    INDEX 01 00:14:07
  TRACK 12 AUDIO
    TITLE "0:"
    INDEX 01 00:15:21
  TRACK 13 AUDIO
    TITLE "16:cjc019_5485"
    INDEX 01 00:17:04
  TRACK 14 AUDIO
    TITLE "0:"
    INDEX 01 00:18:13
  TRACK 15 AUDIO
    TITLE "18:cjc019_5486"
    INDEX 01 00:18:66
  TRACK 16 AUDIO
    TITLE "0:"
    INDEX 01 00:21:43
  TRACK 17 AUDIO
    TITLE "17:cjc019_5487"
    INDEX 01 00:22:23
  TRACK 18 AUDIO
    TITLE "0:"
    INDEX 01 00:23:34
  TRACK 19 AUDIO
    TITLE "16:cjc019_5488"
    INDEX 01 00:25:19
  TRACK 20 AUDIO
    TITLE "0:"
    INDEX 01 00:26:52
  TRACK 21 AUDIO
    TITLE "18:cjc019_5489"
    INDEX 01 00:27:34
  TRACK 22 AUDIO
    TITLE "0:"
    INDEX 01 00:31:57
  TRACK 23 AUDIO
    TITLE "17:cjc019_5490"
    INDEX 01 00:32:33
  TRACK 24 AUDIO
    TITLE "0:"
    INDEX 01 00:33:60
  TRACK 25 AUDIO
    TITLE "16:cjc019_5491"
    INDEX 01 00:35:43
  TRACK 26 AUDIO
    TITLE "0:"
    INDEX 01 00:36:72
  TRACK 27 AUDIO
    TITLE "18:cjc019_5492"
    INDEX 01 00:37:48
  TRACK 28 AUDIO
    TITLE "0:"
    INDEX 01 00:39:66
  TRACK 29 AUDIO
    TITLE "17:cjc019_5493"
    INDEX 01 00:40:42
  TRACK 30 AUDIO
    TITLE "0:"
    INDEX 01 00:42:04
  TRACK 31 AUDIO
    TITLE "16:cjc019_5494"
    INDEX 01 00:43:54
  TRACK 32 AUDIO
    TITLE "0:"
    INDEX 01 00:45:10
  TRACK 33 AUDIO
    TITLE "18:cjc019_5495"
    INDEX 01 00:45:71
  TRACK 34 AUDIO
    TITLE "0:"
    INDEX 01 00:47:30
  TRACK 35 AUDIO
    TITLE "17:cjc019_5496"
    INDEX 01 00:48:14
  TRACK 36 AUDIO
    TITLE "0:"
    INDEX 01 00:49:39
  TRACK 37 AUDIO
    TITLE "16:cjc019_5497"
    INDEX 01 00:51:22
  TRACK 38 AUDIO
    TITLE "0:"
    INDEX 01 00:52:30
  TRACK 39 AUDIO
    TITLE "18:cjc019_5498"
    INDEX 01 00:53:19
  TRACK 40 AUDIO
    TITLE "0:"
    INDEX 01 00:57:27
  TRACK 41 AUDIO
    TITLE "17:cjc019_5499"
    INDEX 01 00:58:07
  TRACK 42 AUDIO
    TITLE "0:"
    INDEX 01 00:59:12
  TRACK 43 AUDIO
    TITLE "16:cjc019_5500"
    INDEX 01 01:01:07
  TRACK 44 AUDIO
    TITLE "0:"
    INDEX 01 01:02:50
  TRACK 45 AUDIO
    TITLE "18:cjc019_5501"
    INDEX 01 01:03:29
  TRACK 46 AUDIO
    TITLE "0:"
    INDEX 01 01:04:48
  TRACK 47 AUDIO
    TITLE "17:cjc019_5502"
    INDEX 01 01:05:26
  TRACK 48 AUDIO
    TITLE "0:"
    INDEX 01 01:06:69
  TRACK 49 AUDIO
    TITLE "16:cjc019_5503"
    INDEX 01 01:08:52
  TRACK 50 AUDIO
    TITLE "0:"
    INDEX 01 01:09:69
  TRACK 51 AUDIO
    TITLE "18:cjc019_5504"
    INDEX 01 01:10:49
  TRACK 52 AUDIO
    TITLE "0:"
    INDEX 01 01:13:16
  TRACK 53 AUDIO
    TITLE "17:cjc019_5505"
    INDEX 01 01:13:71
  TRACK 54 AUDIO
    TITLE "0:"
    INDEX 01 01:15:21
  TRACK 55 AUDIO
    TITLE "16:cjc019_5506"
    INDEX 01 01:17:06
  TRACK 56 AUDIO
    TITLE "0:"
    INDEX 01 01:18:09
  TRACK 57 AUDIO
    TITLE "18:cjc019_5507"
    INDEX 01 01:18:66
  TRACK 58 AUDIO
    TITLE "0:"
    INDEX 01 01:21:45
  TRACK 59 AUDIO
    TITLE "17:cjc019_5508"
    INDEX 01 01:22:25
  TRACK 60 AUDIO
    TITLE "0:"
    INDEX 01 01:23:30
  TRACK 61 AUDIO
    TITLE "16:cjc019_5509"
    INDEX 01 01:25:08
  TRACK 62 AUDIO
    TITLE "0:"
    INDEX 01 01:26:36
  TRACK 63 AUDIO
    TITLE "18:cjc019_5510"
    INDEX 01 01:27:22
  TRACK 64 AUDIO
    TITLE "0:"
    INDEX 01 01:29:72
  TRACK 65 AUDIO
    TITLE "17:cjc019_5511"
    INDEX 01 01:30:48
  TRACK 66 AUDIO
    TITLE "0:"
    INDEX 01 01:32:06
  TRACK 67 AUDIO
    TITLE "16:cjc019_5512"
    INDEX 01 01:33:60
  TRACK 68 AUDIO
    TITLE "0:"
    INDEX 01 01:34:69
  TRACK 69 AUDIO
    TITLE "18:cjc019_5513"
    INDEX 01 01:35:49
  TRACK 70 AUDIO
    TITLE "0:"
    INDEX 01 01:36:72
  TRACK 71 AUDIO
    TITLE "17:cjc019_5514"
    INDEX 01 01:37:58
  TRACK 72 AUDIO
    TITLE "0:"
    INDEX 01 01:38:69
  TRACK 73 AUDIO
    TITLE "16:cjc019_5515"
    INDEX 01 01:40:50
  TRACK 74 AUDIO
    TITLE "0:"
    INDEX 01 01:42:16
  TRACK 75 AUDIO
    TITLE "18:cjc019_5516"
    INDEX 01 01:42:73
  TRACK 76 AUDIO
    TITLE "0:"
    INDEX 01 01:45:73
  TRACK 77 AUDIO
    TITLE "17:cjc019_5517"
    INDEX 01 01:46:51
  TRACK 78 AUDIO
    TITLE "0:"
    INDEX 01 01:48:24
  TRACK 79 AUDIO
    TITLE "16:cjc019_5518"
    INDEX 01 01:50:04
  TRACK 80 AUDIO
    TITLE "0:"
    INDEX 01 01:51:13
  TRACK 81 AUDIO
    TITLE "18:cjc019_5519"
    INDEX 01 01:51:72
  TRACK 82 AUDIO
    TITLE "0:"
    INDEX 01 01:54:15
  TRACK 83 AUDIO
    TITLE "17:cjc019_5520"
    INDEX 01 01:54:70
  TRACK 84 AUDIO
    TITLE "0:"
    INDEX 01 01:56:10
  TRACK 85 AUDIO
    TITLE "16:cjc019_5521"
    INDEX 01 01:57:64
  TRACK 86 AUDIO
    TITLE "0:"
    INDEX 01 01:58:72
  TRACK 87 AUDIO
    TITLE "18:cjc019_5522"
    INDEX 01 01:59:50
  TRACK 88 AUDIO
    TITLE "0:"
    INDEX 01 02:02:42
  TRACK 89 AUDIO
    TITLE "17:cjc019_5523"
    INDEX 01 02:03:22
  TRACK 90 AUDIO
    TITLE "0:"
    INDEX 01 02:04:31
  TRACK 91 AUDIO
    TITLE "16:cjc019_5524"
    INDEX 01 02:06:10
  TRACK 92 AUDIO
    TITLE "0:"
    INDEX 01 02:07:18
  TRACK 93 AUDIO
    TITLE "18:cjc019_5525"
    INDEX 01 02:08:00
  TRACK 94 AUDIO
    TITLE "0:"
    INDEX 01 02:11:72
  TRACK 95 AUDIO
    TITLE "17:cjc019_5526"
    INDEX 01 02:12:46
  TRACK 96 AUDIO
    TITLE "0:"
    INDEX 01 02:13:56
  TRACK 97 AUDIO
    TITLE "16:cjc019_5527"
    INDEX 01 02:15:35
  TRACK 98 AUDIO
    TITLE "0:"
    INDEX 01 02:17:00
  TRACK 99 AUDIO
    TITLE "18:cjc019_5528"
    INDEX 01 02:17:61
  TRACK 100 AUDIO
    TITLE "0:"
    INDEX 01 02:20:34
  TRACK 101 AUDIO
    TITLE "17:cjc019_5529"
    INDEX 01 02:21:14
  TRACK 102 AUDIO
    TITLE "0:"
    INDEX 01 02:22:54
  TRACK 103 AUDIO
    TITLE "16:cjc019_5530"
    INDEX 01 02:24:40
  TRACK 104 AUDIO
    TITLE "0:"
    INDEX 01 02:25:49
  TRACK 105 AUDIO
    TITLE "18:cjc019_5531"
    INDEX 01 02:26:31
  TRACK 106 AUDIO
    TITLE "0:"
    INDEX 01 02:30:25
  TRACK 107 AUDIO
    TITLE "17:cjc019_5532"
    INDEX 01 02:31:03
  TRACK 108 AUDIO
    TITLE "0:"
    INDEX 01 02:32:16
